<svg xmlns="http://www.w3.org/2000/svg" viewBox="0 0 500 500"><g id="freepik--Shadows--inject-6"><path id="freepik--Shadow--inject-6" d="M130.92,294.81c48.93-28.24,128.25-28.24,177.17,0,41.47,23.94,47.77,60.49,18.94,88.28l107.65,61.36c6.56,3.79,6.56,9.93,0,13.72L425,463.76c-6.56,3.79-17,3.49-23.36-.66l-94-65.74c-49,28-127.92,27.89-176.68-.26C82,368.85,82,323.06,130.92,294.81Z" style="fill:#e6e6e6"></path></g><g id="freepik--Glass--inject-6"><g id="freepik--glass--inject-6"><path d="M109.83,313.19v30.43c0,16.52,10.92,33,32.75,45.65,43.66,25.21,114.46,25.21,158.12,0,21.83-12.61,32.75-29.13,32.75-45.65V313.19h0c0-16.52-10.92-33-32.75-45.64-43.66-25.21-114.46-25.21-158.12,0-21.83,12.6-32.75,29.12-32.75,45.64Zm212.8,0c0,13.22-9.71,26.1-27.34,36.28-19.5,11.26-45.65,17.46-73.65,17.46s-54.15-6.2-73.65-17.46c-17.63-10.18-27.34-23.06-27.34-36.28s9.71-26.1,27.34-36.28c19.5-11.26,45.65-17.46,73.65-17.46s54.16,6.2,73.65,17.46C312.93,287.09,322.63,300,322.63,313.19Z" style="fill:#8089A6"></path><path d="M109.83,313.19v30.43c0,16.52,10.92,33,32.75,45.65,43.66,25.21,114.46,25.21,158.12,0,21.83-12.61,32.75-29.13,32.75-45.65V313.19h0c0-16.52-10.92-33-32.75-45.64-43.66-25.21-114.46-25.21-158.12,0-21.83,12.6-32.75,29.12-32.75,45.64Zm212.8,0c0,13.22-9.71,26.1-27.34,36.28-19.5,11.26-45.65,17.46-73.65,17.46s-54.15-6.2-73.65-17.46c-17.63-10.18-27.34-23.06-27.34-36.28s9.71-26.1,27.34-36.28c19.5-11.26,45.65-17.46,73.65-17.46s54.16,6.2,73.65,17.46C312.93,287.09,322.63,300,322.63,313.19Z" style="fill:#fff;opacity:0.2"></path><path d="M333.34,346.46c-1.74,10.47-6.35,18.35-24.92,32.84-26.25,20.5-92.72,28.87-131.3,16.14-36.39-12-48-35.49-48-51.6l.1-9.47c-5.62-6.69-8.58-13.88-8.58-21.18,0-7.48,3.11-14.85,9-21.68l.13-13.34H127.7c-11.91,10.63-17.87,22.82-17.87,35v30.43c0,16.52,10.92,33,32.75,45.65,43.66,25.21,114.46,25.21,158.12,0C321.28,377.39,332.16,362,333.34,346.46Z" style="fill:#8089A6;opacity:0.6000000000000001"></path><path d="M300.71,267.55c-43.67-25.21-114.46-25.21-158.12,0s-43.67,66.08,0,91.29,114.45,25.21,158.12,0S344.37,292.76,300.71,267.55Zm-5.41,81.92c-19.5,11.26-45.66,17.46-73.65,17.46s-54.15-6.2-73.66-17.46c-17.63-10.18-27.34-23.06-27.34-36.28s9.71-26.1,27.34-36.28c19.5-11.26,45.66-17.46,73.66-17.46s54.15,6.2,73.65,17.46c17.63,10.18,27.34,23.07,27.34,36.28S312.93,339.29,295.3,349.47Z" style="fill:#8089A6"></path><path d="M300.71,267.55c-43.67-25.21-114.46-25.21-158.12,0s-43.67,66.08,0,91.29,114.45,25.21,158.12,0S344.37,292.76,300.71,267.55Zm-5.41,81.92c-19.5,11.26-45.66,17.46-73.65,17.46s-54.15-6.2-73.66-17.46c-17.63-10.18-27.34-23.06-27.34-36.28s9.71-26.1,27.34-36.28c19.5-11.26,45.66-17.46,73.66-17.46s54.15,6.2,73.65,17.46c17.63,10.18,27.34,23.07,27.34,36.28S312.93,339.29,295.3,349.47Z" style="fill:#fff;opacity:0.5"></path><path d="M322.65,313.19a29.94,29.94,0,0,1-4.37,15.22c-4.43-7.67-12.24-14.87-23-21.06-19.48-11.27-45.65-17.47-73.65-17.47s-54.15,6.2-73.64,17.47c-10.75,6.19-18.55,13.39-23,21.06a30.2,30.2,0,0,1-4.34-15.22c0-13.21,9.71-26.1,27.35-36.29,19.49-11.24,45.65-17.45,73.64-17.45s54.17,6.21,73.65,17.45C312.94,287.09,322.65,300,322.65,313.19Z" style="fill:#8089A6"></path><path d="M322.65,313.19a29.94,29.94,0,0,1-4.37,15.22c-4.43-7.67-12.24-14.87-23-21.06-19.48-11.27-45.65-17.47-73.65-17.47s-54.15,6.2-73.64,17.47c-10.75,6.19-18.55,13.39-23,21.06a30.2,30.2,0,0,1-4.34-15.22c0-13.21,9.71-26.1,27.35-36.29,19.49-11.24,45.65-17.45,73.64-17.45s54.17,6.21,73.65,17.45C312.94,287.09,322.65,300,322.65,313.19Z" style="fill:#fff;opacity:0.30000000000000004"></path><path d="M148,276.9c-17.64,10.19-27.35,23.08-27.35,36.29A30.2,30.2,0,0,0,125,328.41c4.46-7.67,12.26-14.87,23-21.06a111.81,111.81,0,0,1,14.12-6.81c-4.26,1.65-17.34,5.86-12.57-6.61,5.67-14.81,33.34-30.85,53.67-33.51v0C182.31,262.49,163.14,268.17,148,276.9Z" style="fill:#8089A6;opacity:0.6000000000000001"></path><path d="M295.3,290.69c-19.5-11.26-45.66-17.46-73.65-17.46s-54.16,6.2-73.66,17.46c-14.54,8.4-23.68,18.64-26.44,29.39,2.76,10.75,11.9,21,26.44,29.39,19.51,11.26,45.66,17.46,73.66,17.46s54.15-6.2,73.65-17.46c14.55-8.4,23.69-18.64,26.44-29.39C319,309.33,309.85,299.09,295.3,290.69Z" style="fill:#fff;opacity:0.4"></path><path d="M140.52,327.06c6.25,4.9,13.34,8,20.57,10.46A147,147,0,0,0,183.3,343a219.87,219.87,0,0,0,45.56,2.6c7.61-.34,15.23-1.05,22.8-2.07a187.33,187.33,0,0,0,22.39-4.41,96.94,96.94,0,0,0,21.13-8,48.07,48.07,0,0,0,4.8-2.93,37.85,37.85,0,0,0,4.39-3.5,25.11,25.11,0,0,0,3.69-4.27,18.28,18.28,0,0,0,2.49-5.23,16.88,16.88,0,0,1-1,6,26.23,26.23,0,0,1-2.86,5.48,32.86,32.86,0,0,1-3.92,4.8,48.7,48.7,0,0,1-4.59,4.15,82.11,82.11,0,0,1-21.43,11.76,137,137,0,0,1-23.37,6.51,175.66,175.66,0,0,1-24,2.85,153.12,153.12,0,0,1-48-5.11,107.59,107.59,0,0,1-22.51-9,69.89,69.89,0,0,1-10.1-6.74c-.79-.63-1.53-1.32-2.29-2s-1.48-1.37-2.17-2.1A36.34,36.34,0,0,1,140.52,327.06Z" style="fill:#fff"></path><path d="M297.38,378.21a17.29,17.29,0,0,1,7.78-13.6c2.14-1.25,4.09-1.38,5.51-.58h0l0,0h0l24.92,14.25h0c1.41.81,2.29,2.56,2.3,5a17.32,17.32,0,0,1-7.78,13.6c-2.16,1.26-4.12,1.39-5.54.57h0l-24.91-14.24h0C298.28,382.47,297.39,380.72,297.38,378.21Z" style="fill:#37474f"></path><path d="M299.71,383.28c-1.43-.81-2.32-2.56-2.33-5.07a14.72,14.72,0,0,1,1.33-5.86l35.81,20.52a15,15,0,0,1-4.36,4.08c-2.16,1.26-4.12,1.39-5.54.57l-24.91-14.24Z" style="fill:#263238"></path><path d="M420.44,418.81h0l0,0L341.14,378.4h0l-.1-.06v0c-1.84-1-4.34-.82-7.09.78-5.62,3.28-10.15,11.2-10.12,17.7,0,3.26,1.17,5.54,3,6.6l74.53,48h0a18.9,18.9,0,1,0,19.07-32.61Z" style="fill:#455a64"></path><path d="M326.84,403.44l74.53,48a18.88,18.88,0,0,0,28.88-14.79c-1.43,6.21-11.69,11.49-24.41,4.38S346,404.13,324.59,391.8a17.37,17.37,0,0,0-.78,5C323.82,400.1,325,402.38,326.84,403.44Z" style="fill:#37474f"></path><path d="M326.84,403.44c-1.86-1.06-3-3.34-3-6.6,0-6.5,4.5-14.42,10.12-17.7,2.75-1.6,5.25-1.77,7.09-.78l7,3.56c-1.89-1-4.44-.84-7.27.8-5.76,3.36-10.41,11.49-10.38,18.16,0,3.34,1.15,5.73,3.05,6.81" style="fill:#8089A6"></path><path d="M333.44,407.69c-1.9-1.08-3-3.47-3.05-6.81a17.86,17.86,0,0,1,.81-5.21c-2.39-1.42-4.62-2.72-6.61-3.87a19.94,19.94,0,0,0-.59,2.55q-.09.63-.15,1.26c0,.42-.05.83,0,1.23,0,3.26,1.17,5.54,3,6.6Z" style="opacity:0.2"></path></g></g><g id="freepik--speech-bubbles--inject-6"><g id="freepik--speech-bubbles--inject-6"><g id="freepik--speech-bubble--inject-6"><g id="freepik--speech-bubble--inject-6"><path d="M378.54,109c-7.53-4.36-17.88-3.77-29.32,2.83-23,13.3-41.69,45.87-41.69,72.76,0,13.53,4.74,23,12.37,27.43,1.77,1,8.69,5,8.69,5a19.08,19.08,0,0,1-9.71,14.66c-.44.25-.17.68.22.9l10.57,6.11a1,1,0,0,0,.47.14c10.41,0,22.46-7,25.82-21.54,1.26-.6,2.53-1.25,3.82-2,23-13.29,41.69-45.87,41.69-72.75,0-13.54-4.73-23-12.36-27.46Z" style="fill:#37474f"></path><path d="M359.78,117.93c-23,13.29-41.69,45.87-41.69,72.75,0,18.25,8.59,29.17,21.31,30.17-.48,5.8-2.17,12.32-10,16.93-.62.37.19,1.06.71,1.06,10.41,0,22.46-7,25.82-21.54,1.26-.6,2.53-1.25,3.82-2,23-13.29,41.69-45.87,41.69-72.75S382.8,104.64,359.78,117.93Z" style="fill:#455a64"></path><path d="M329.43,237.78c-.38.24-.21.59.11.83l-10.44-6c-.39-.24-.66-.65-.22-.91A19.07,19.07,0,0,0,328.59,217l1.15.68,1.06.62a20.75,20.75,0,0,0,8.6,2.52C338.93,226.65,337.23,233.17,329.43,237.78Z" style="fill:#263238"></path></g><path d="M355.38,194.89c-1.11-.79-1.67-2.21-1.67-4.26a12.66,12.66,0,0,1,1.64-6.09,11.23,11.23,0,0,1,4.2-4.49q2.55-1.47,4.19-.35c1.09.74,1.64,2.14,1.64,4.19a13.07,13.07,0,0,1-1.67,6.2,11.16,11.16,0,0,1-4.16,4.55C357.89,195.59,356.5,195.68,355.38,194.89Zm-1.49-54.36L365.2,134l-1.89,38.12-7.53,4.35Z" style="fill:#fafafa"></path></g><path d="M365.34,211.65c12.28-9,22.87-23.27,29.35-38.59C382.41,182.07,371.82,196.33,365.34,211.65Z" style="opacity:0.2"></path><g id="freepik--speech-bubble--inject-6"><g id="freepik--speech-bubble--inject-6"><path d="M443.86,263.75c-4.26.05-7.43-2.93-9.42-6.68,12.76-15.69,21.39-36.59,21.39-54.87,0-13.55-4.75-23.07-12.4-27.47l-10.55-6.08c-7.53-4.35-17.87-3.75-29.3,2.84-23,13.3-41.69,45.87-41.69,72.76,0,13.53,4.73,23,12.36,27.45,1.78,1,8.79,5.06,10.52,6.07,7.54,4.39,17.91,3.81,29.37-2.81a63.48,63.48,0,0,0,8.71-6.1c7.74,6.13,17.18-.55,20.92-3.75C444.27,264.69,444.33,263.75,443.86,263.75Z" style="fill:#e0e0e0"></path><path d="M395.69,280c-13.94,0-22.59-11.35-22.59-29.61,0-26.64,18.56-59,41.36-72.19,6.38-3.68,12.48-5.55,18.13-5.55,13.93,0,22.59,11.34,22.59,29.61,0,17.47-8.14,38.34-21.24,54.45l-.27.34.2.38c2.35,4.43,5.76,6.91,9.62,7a.52.52,0,0,1-.14.22c-2.66,2.28-7.94,6.09-13.41,6.09h0a10.53,10.53,0,0,1-6.69-2.36l-.41-.32-.41.33a63.4,63.4,0,0,1-8.62,6C407.44,278.08,401.34,280,395.69,280Z" style="fill:#fafafa"></path><path d="M432.59,172v1.3c13.53,0,21.94,11.1,21.94,28.95,0,17.34-8.08,38.05-21.09,54.05l-.55.67.41.76c2.16,4.08,5.2,6.59,8.69,7.22-2.77,2.21-7.36,5.16-12.05,5.16a9.89,9.89,0,0,1-6.29-2.22l-.82-.65-.81.67a63.35,63.35,0,0,1-8.53,6c-6.28,3.62-12.27,5.46-17.8,5.46-13.53,0-21.94-11.1-21.94-29,0-26.43,18.41-58.56,41-71.63,6.28-3.62,12.27-5.46,17.8-5.46V172m0,0c-5.56,0-11.82,1.81-18.45,5.64-23,13.29-41.69,45.86-41.69,72.75,0,19.15,9.47,30.26,23.24,30.26,5.56,0,11.82-1.81,18.45-5.64a63.48,63.48,0,0,0,8.71-6.1,11.09,11.09,0,0,0,7.09,2.5c5.72,0,11.19-4,13.83-6.25.5-.42.56-1.36.09-1.36h-.1c-4.2,0-7.34-2.95-9.32-6.68,12.76-15.69,21.39-36.59,21.39-54.87,0-19.15-9.47-30.25-23.24-30.25Z" style="fill:#8089A6"></path></g><path d="M412,230.85a76.12,76.12,0,0,1,4.17-8.48,63.83,63.83,0,0,0,2.94-5.79,10.92,10.92,0,0,0,.95-4.31c0-2-.6-3.23-1.8-3.71s-2.78-.13-4.77,1a17.47,17.47,0,0,0-5.07,4.5,27.77,27.77,0,0,0-3.74,6.58l-7.35-1.51a43.46,43.46,0,0,1,6.9-12,37,37,0,0,1,10.3-8.79q7-4,11.21-2.5t4.22,8.58a23.57,23.57,0,0,1-.82,6.31,30.31,30.31,0,0,1-2,5.41c-.79,1.62-1.82,3.55-3.07,5.79a64.09,64.09,0,0,0-3.28,6.39,12.6,12.6,0,0,0-1,5l-9.17,5.3A20.93,20.93,0,0,1,412,230.85Zm-1,25.73c-1.11-.79-1.67-2.21-1.67-4.27a12.66,12.66,0,0,1,1.64-6.09,11.28,11.28,0,0,1,4.19-4.49c1.71-1,3.1-1.1,4.2-.35s1.64,2.15,1.64,4.2a13.06,13.06,0,0,1-1.67,6.19,11.11,11.11,0,0,1-4.17,4.55C413.55,257.28,412.17,257.36,411.05,256.58Z" style="fill:#455a64"></path></g></g></g><g id="freepik--Letters--inject-6"><g id="freepik--speech-bubble--inject-6"><g id="freepik--speech-bubble--inject-6"><path d="M200.78,185.3l-46,26.64L173.05,243a4.21,4.21,0,0,0,1.75,2c2.18,1.23,15.09,8.71,15.8,9.12a4.23,4.23,0,0,0,6.17-2.46l19.84-57.18Z" style="fill:#8089A6"></path><path d="M200.78,185.3l-46,26.64L173.05,243a4.21,4.21,0,0,0,1.75,2c2.18,1.23,15.09,8.71,15.8,9.12a4.23,4.23,0,0,0,6.17-2.46l19.84-57.18Z" style="opacity:0.2"></path><path d="M170.61,221.08l18.27,31.06a4.21,4.21,0,0,0,7.89-.52l19.84-57.18Z" style="fill:#8089A6"></path><path d="M252.1,26,78.63,126.13a8.8,8.8,0,0,0-4,6.9V253.42a8.69,8.69,0,0,0,4,6.86l14.27,8a8.9,8.9,0,0,0,8,0L274.38,168.09a8.83,8.83,0,0,0,4-6.9V40.8a8.7,8.7,0,0,0-4-6.86l-14.26-8A8.92,8.92,0,0,0,252.1,26Z" style="fill:#8089A6"></path><path d="M278.31,40.07c-.32-2-1.95-2.72-3.94-1.58L100.91,138.65a8,8,0,0,0-2.81,3L75.89,129a8.1,8.1,0,0,1,2.74-2.83L252.11,26a8.93,8.93,0,0,1,8,0l14.26,8A8.79,8.79,0,0,1,278.31,40.07Z" style="fill:#fff;opacity:0.30000000000000004"></path><path d="M96.92,266.4V146a8.78,8.78,0,0,1,4-6.89L274.38,39c2.19-1.27,4-.24,4,2.3V161.65a8.83,8.83,0,0,1-4,6.9L100.9,268.7C98.7,270,96.92,268.94,96.92,266.4Z" style="fill:#8089A6"></path><path d="M100.9,268.24a9.11,9.11,0,0,1-8,0l-14.26-8a8.66,8.66,0,0,1-4-6.84V133A8.24,8.24,0,0,1,75.91,129L98.1,141.63a7.85,7.85,0,0,0-1.18,3.91V265.93C96.92,268.26,98.56,269.6,100.9,268.24Z" style="opacity:0.2"></path></g><g id="freepik--FAQ--inject-6"><path d="M145.59,170l-1.73-1a4.38,4.38,0,0,0-4.35,0l-10.57,6.1V160.66l19.57-11.29a6.1,6.1,0,0,0,3-5.27V136a6.1,6.1,0,0,0-3-5.27h0a6.08,6.08,0,0,0-6.09,0l-27.14,15.67a10.55,10.55,0,0,0-5.28,9.15v75.19a6.1,6.1,0,0,0,3,5.28h0a6.1,6.1,0,0,0,6.09,0l6.77-3.9a6.1,6.1,0,0,0,3-5.28V197.34l16.66-9.62a4.36,4.36,0,0,0,2.17-3.77V173.79A4.33,4.33,0,0,0,145.59,170Z" style="fill:#e0e0e0"></path><path d="M119.71,235.66l-.58.34a6.1,6.1,0,0,1-9.14-5.27V155.54a10.54,10.54,0,0,1,1.27-5l6.09,3.51a10.45,10.45,0,0,0-1.27,5v74.49A2.44,2.44,0,0,0,119.71,235.66Z" style="opacity:0.1"></path><path d="M128.94,160.66v21.48l16.63-9.59a1.46,1.46,0,0,1,2.2,1.27V184a4.34,4.34,0,0,1-2.16,3.75l-16.67,9.62v29.49a6.07,6.07,0,0,1-3,5.26l-6.16,3.56a2.43,2.43,0,0,1-3.65-2.11V159.05a10.57,10.57,0,0,1,5.28-9.15l26.88-15.52a2.2,2.2,0,0,1,3.3,1.91v7.83a6.05,6.05,0,0,1-3,5.24Z" style="fill:#fafafa"></path><path d="M187,115.24a7.2,7.2,0,0,0-10.5-4.2l-6.73,3.89a7.18,7.18,0,0,0-3.43,4.69L146.27,211a3.76,3.76,0,0,0,1.79,4l1.84,1.06a3.75,3.75,0,0,0,3.75,0l8.11-4.68a7.3,7.3,0,0,0,2.66-2.85,13.67,13.67,0,0,0,1.49-3.8l3.26-16.66,16.4-9.47,1.7,6.77a3.81,3.81,0,0,0,1.55,2.16c.68.4,5.41,3.11,6.09,3.52a2.65,2.65,0,0,0,2.69-.36l9.9-5.72Zm-13.33,49.83L177.18,147l.21-1,3.72,14.77Z" style="fill:#e0e0e0"></path><path d="M194.83,191c-.89-.53-5.35-3.08-6-3.47a3.81,3.81,0,0,1-1.55-2.16l-1.7-6.77,4.54-2.62,3.25,12.9A4,4,0,0,0,194.83,191Z" style="opacity:0.1"></path><path d="M187.2,164.28l-6.09-3.52L177.39,146h0s0,0,0-.06c.32-1.44.64-3.08,1-4.9.43-2.27.83-4.69,1.21-7.28q.65,3.12,1.29,5.75c.43,1.75.83,3.25,1.21,4.51Z" style="opacity:0.1"></path><path d="M152.47,214a1.42,1.42,0,0,0,1.77,1.68l0,.08-.57.32a3.75,3.75,0,0,1-3.75,0L148.06,215a3.76,3.76,0,0,1-1.79-4l20.06-91.34a7,7,0,0,1,1-2.37l6.09,3.52a6.68,6.68,0,0,0-1,2.36Z" style="opacity:0.1"></path><path d="M207.51,185l-9.91,5.72c-1.11.64-2,.76-2.68.36a3.83,3.83,0,0,1-1.55-2.16L190.12,176l-21,12.09-3.25,16.66a14.21,14.21,0,0,1-1.5,3.81,7.19,7.19,0,0,1-2.66,2.84l-7.17,4.15a1.44,1.44,0,0,1-2.12-1.55l19.95-90.86a7.18,7.18,0,0,1,3.43-4.68l6.47-3.74a3.51,3.51,0,0,1,5.12,2.05Zm-20.31-20.7L182.1,144c-.38-1.25-.78-2.76-1.21-4.51s-.86-3.67-1.29-5.75c-.37,2.59-.78,5-1.2,7.28s-.84,4.24-1.22,5.94l-5.06,26Z" style="fill:#fafafa"></path><path d="M254.91,150a74.32,74.32,0,0,0,4.59-9.34,82.68,82.68,0,0,0,3.4-10.18A87.34,87.34,0,0,0,265,119.84a81.81,81.81,0,0,0,.74-10.93A54.62,54.62,0,0,0,263.7,93a24.22,24.22,0,0,0-5.8-10.38A14.1,14.1,0,0,0,255,80.48L249,77a13.68,13.68,0,0,0-6.23-1.83q-5.28-.3-11.7,3.41a43.33,43.33,0,0,0-11.72,10.08A67.11,67.11,0,0,0,210.31,103a84.62,84.62,0,0,0-7.88,35.4,54.52,54.52,0,0,0,2.06,15.93,24.07,24.07,0,0,0,5.82,10.4,13.68,13.68,0,0,0,2.91,2.2c1,.56,4.95,2.86,5.93,3.43a13.69,13.69,0,0,0,6.31,1.83q5.28.26,11.72-3.45a38.16,38.16,0,0,0,5.19-3.6l2.48,2.85a5.36,5.36,0,0,0,1.14.89c.7.41,5.68,3.27,6.06,3.5a3.72,3.72,0,0,0,2.23.54,9.75,9.75,0,0,0,4.07-1.45l10.51-6.06Zm-9.38-25.1a48.92,48.92,0,0,1-3.05,10.28,33.1,33.1,0,0,1-4.85,8.13,24.06,24.06,0,0,1-6.54,5.61,12.57,12.57,0,0,1-6.12,2,18.15,18.15,0,0,1-2.31-5.77,46.66,46.66,0,0,1-1.06-10.76,64.37,64.37,0,0,1,1.06-11.94,48.92,48.92,0,0,1,3-10.28,33.57,33.57,0,0,1,4.88-8.17,24.1,24.1,0,0,1,6.6-5.68,12.29,12.29,0,0,1,6-1.92,18.37,18.37,0,0,1,2.34,5.82A47,47,0,0,1,246.59,113,65.56,65.56,0,0,1,245.53,124.94Z" style="fill:#e0e0e0"></path><path d="M218.9,170.25c-1.27-.73-4.76-2.76-5.68-3.28a13.68,13.68,0,0,1-2.91-2.2,24.07,24.07,0,0,1-5.82-10.4,54.52,54.52,0,0,1-2.06-15.93,82.29,82.29,0,0,1,2.06-18.3,83.2,83.2,0,0,1,5.28-15.91l6.09,3.52A84.58,84.58,0,0,0,208.52,142a54.4,54.4,0,0,0,2.06,15.92,24.06,24.06,0,0,0,5.82,10.41A14.37,14.37,0,0,0,218.9,170.25Z" style="opacity:0.1"></path><path d="M248.57,99a6.82,6.82,0,0,0-4.85-2.55c-.17,0-.35,0-.52,0a18.4,18.4,0,0,1,2.33,5.81A47,47,0,0,1,246.59,113a65.56,65.56,0,0,1-1.06,12,48.92,48.92,0,0,1-3.05,10.28,33.1,33.1,0,0,1-4.85,8.13,24.06,24.06,0,0,1-6.54,5.61,12.57,12.57,0,0,1-6.12,2,8.28,8.28,0,0,0,.73,1,6.62,6.62,0,0,0,4.88,2.51,12.09,12.09,0,0,0,6.6-2,24.06,24.06,0,0,0,6.54-5.61,33.48,33.48,0,0,0,4.85-8.13,48.84,48.84,0,0,0,3.05-10.29,65.48,65.48,0,0,0,1.06-12,47,47,0,0,0-1.06-10.71A16.22,16.22,0,0,0,248.57,99Z" style="opacity:0.1"></path><path d="M244.1,163.68c-.57.52-1.14,1-1.73,1.5l2.48,2.85a5.36,5.36,0,0,0,1.14.89c.68.4,5.37,3.09,6,3.47a5.42,5.42,0,0,1-1.06-.85Z" style="opacity:0.1"></path><path d="M268.86,165.45l-10.51,6.07a9.87,9.87,0,0,1-4.06,1.44,4.18,4.18,0,0,1-3.35-1.42l-6.84-7.86a39.56,39.56,0,0,1-6.92,5.1q-6.44,3.71-11.72,3.45a13.54,13.54,0,0,1-9.06-3.94,24.16,24.16,0,0,1-5.82-10.41A54.74,54.74,0,0,1,208.52,142a84.62,84.62,0,0,1,7.88-35.4,67.11,67.11,0,0,1,9.06-14.37,43.48,43.48,0,0,1,11.72-10.08q6.42-3.72,11.7-3.41a13.6,13.6,0,0,1,9,4,24.1,24.1,0,0,1,5.8,10.39,54.16,54.16,0,0,1,2.06,15.86,81.79,81.79,0,0,1-.73,10.93,89.43,89.43,0,0,1-2.12,10.69,82.58,82.58,0,0,1-3.41,10.17,73,73,0,0,1-4.59,9.34Zm-47.26-31a46.76,46.76,0,0,0,1.06,10.77,16.41,16.41,0,0,0,3,6.77,6.71,6.71,0,0,0,4.88,2.51,12.11,12.11,0,0,0,6.6-2,24.06,24.06,0,0,0,6.54-5.61,33.51,33.51,0,0,0,4.86-8.13,48.84,48.84,0,0,0,3-10.29,64.53,64.53,0,0,0,1.06-12,46.44,46.44,0,0,0-1.06-10.71,16.34,16.34,0,0,0-3-6.77,6.84,6.84,0,0,0-4.86-2.55,11.77,11.77,0,0,0-6.54,1.92,23.89,23.89,0,0,0-6.6,5.67,33.89,33.89,0,0,0-4.88,8.17,49.52,49.52,0,0,0-3,10.28A64.45,64.45,0,0,0,221.6,134.41Z" style="fill:#fafafa"></path></g></g></g></svg>